<svg xmlns="http://www.w3.org/2000/svg" data-name="Layer 1" width="1058" height="434.745"><path fill="#e6e6e6" style="isolation:isolate" d="m643.457 221.721 61.933-61.744-61.933-61.744 18.882-18.819 80.815 80.563-80.815 80.563-18.882-18.819zM466.595 135.207h25.176v25.176h-25.176zM567.803 135.207h25.176v25.176h-25.176zM517.199 135.207h25.176v25.176h-25.176zM432.482 221.092l-61.996-61.744 61.933-61.744-18.882-18.819-80.752 80.563 80.815 80.563 18.882-18.819z"/><path fill="#81c784" d="m643.457 209.763 61.933-61.744-61.933-61.745 18.882-18.819 80.815 80.564-80.815 80.563-18.882-18.819zM466.595 152.424h25.176v-25.176h-25.176Zm126.384-25.176h-25.176v25.176h25.176Zm-75.78 25.176h25.176v-25.176h-25.176ZM432.482 209.133l-61.996-61.744 61.933-61.744-18.882-18.819-80.752 80.563 80.815 80.563 18.882-18.819z"/><path fill="#a0616a" d="m129.305 410.449 14.094 3.407 19.849-52.739-20.801-5.029-13.142 54.361z"/><path d="m122.632 423.105 4.328-17.902 27.574 6.666a18.032 18.032 0 0 1 13.276 21.74l-.096.394Z" fill="#2f2e41"/><path fill="#a0616a" d="m191.696 420.05 14.5-.001 6.897-55.927-21.399.001.002 55.927z"/><path d="M188.183 415.501h28.37a18.012 18.012 0 0 1 18.012 18.01v.406l-46.38.002ZM188.294 400.697l2.383-87.007-3.21-35.28-6.266 27.15-27.38 89.285-23.603-6.211 27.336-96.27-5.937-61.749 17.057-10.965.23.042 58.28 10.742-14.08 167.783Z" fill="#2f2e41"/><path d="M211.359 242.547c-4.694 0-10.182-1.511-16.292-5.824-19.551-13.799-42.863 1.045-43.096 1.195l-.947.616.033-1.129c.024-.803 2.365-80.711 2.365-106.424 0-26.566 17.332-45.962 22.645-51.274 5.214-5.215 9.6-5.1 15.154-4.955.957.024 1.955.051 3.004.051 7.258 0 14.314 6.973 14.61 7.27l.142.141.027.2 20.138 151.63-.154.196c-.093.119-6.706 8.307-17.63 8.307Z" fill="#ccc"/><circle cx="268.308" cy="269.431" r="29.048" transform="rotate(-61.337 36.667 212.981)" fill="#a0616a"/><path d="M241.775 266.826a11.893 11.893 0 0 1-.69-18.223l-16.496-38.91 21.6 3.975 12.353 36.34a11.957 11.957 0 0 1-16.767 16.818Z" fill="#a0616a"/><path d="m237.103 244.677-29.808-60.807-13.07-45.765.01-39.758c.03-.157 3.103-15.622 14.49-14.553 10.327 1 15.89 6.05 18.598 16.885 2.3 9.204-.846 36.51-1.15 39.086 1.997 4.738 31.975 76.165 27.012 84.766a2.184 2.184 0 0 1-.784.813l5.312 11.215Z" fill="#ccc"/><path d="M193.593 47.747c3.483.453 6.11-3.11 7.328-6.403s2.146-7.128 5.174-8.907c4.136-2.43 9.428.493 14.158-.309 5.341-.905 8.814-6.566 9.086-11.977s-1.88-10.615-3.993-15.604l-.738 6.2A12.295 12.295 0 0 0 219.235 0l.95 9.098a9.656 9.656 0 0 0-11.108-7.99l.15 5.42c-6.17-.733-12.393-1.468-18.58-.909s-12.42 2.517-17.11 6.592c-7.014 6.096-9.576 16.133-8.716 25.387s4.68 17.947 8.661 26.344c1.002 2.113 2.387 4.497 4.71 4.767 2.087.241 3.997-1.503 4.645-3.501a12.69 12.69 0 0 0-.056-6.234c-.587-3.12-1.327-6.308-.775-9.433s2.8-6.214 5.951-6.597 6.375 3.218 4.86 6.007Z" fill="#2f2e41"/><path d="M912.591 262.953a10.056 10.056 0 0 1 2.359-15.238l-7.434-34.953 17.29 6.774 4.408 32.154a10.11 10.11 0 0 1-16.623 11.263Z" fill="#ffb8b8"/><path d="m910.628 235.68-.093-.343c-9.347-34.57-19.008-70.308-30.804-109.219l-.078-.255.26-.152c6.575-3.836 16.457-3.58 22.987.594a17.15 17.15 0 0 1 7.443 18.191l8.603 44.858c3.498 14.663 7.118 29.84 10.578 44.805l.098.425-.536.034c-6.3.4-12.807.815-18.021 1.043Z" fill="#ccc"/><path fill="#ffb8b8" d="M831.194 421.744h-12.26l-5.834-47.287h18.094v47.287z"/><path d="M834.321 433.628h-39.53v-.5a15.404 15.404 0 0 1 15.386-15.386h24.144Z" fill="#2f2e41"/><path fill="#ffb8b8" d="m946.719 411.631-11.682 3.722-19.916-43.284 17.241-5.494 14.357 45.056z"/><path d="m915.641 434.006-.151-.476a15.404 15.404 0 0 1 9.989-19.332l23.004-7.33 4.823 15.136Z" fill="#2f2e41"/><circle cx="884.667" cy="69.876" r="24.561" fill="#ffb8b8"/><path d="M895.694 65.324c.14-9.906-4.006-19.717-10.416-24.65a16.649 16.649 0 0 0-21.132.374c-6.311 5.157-10.263 15.111-9.929 25.01 14.141.04 28.282.08 41.477-.734ZM838.193 406.523l-.491-.048c-10.666-1.047-21.695-2.128-32.118-2.252l-.567-.007.077-.561c2.47-17.886 3.517-36.48 4.53-54.462.999-17.756 2.032-36.116 4.44-53.554 1.019-4.669 2.011-9.283 3-13.88 8.186-38.043 15.918-73.976 31.877-109.546l.151-.336.366.044c14.974 1.812 29.363 7.275 40.515 15.383l.216.157-.01.267c-.215 5.525-.438 11.236-.109 16.439a55.797 55.797 0 0 1 7.954 49.283c4.391 14.675 8.931 29.845 13.563 44.81 11.249 30.838 22.888 62.751 34.82 95.1l.196.531-.55.129c-8.585 2.016-17.441 4.094-26.177 4.9l-.33.03-.157-.291A712.851 712.851 0 0 1 865.3 268.602c-2.981 9.093-7.276 17.3-11.437 25.25a189.022 189.022 0 0 0-10.482 22.401c-1.842 15.121-2.33 31.504-2.802 47.347-.447 14.98-.868 29.128-2.331 42.432Z" fill="#2f2e41"/><path d="M876.282 41.129c10.646-2.294 22.422-.112 30.783 7.071s12.606 19.61 9.171 30.266-15.096 18.155-25.64 15.403c3.02-8.512-.378-18.963-7.762-23.866-8.756-5.815-11.166-19.697-6.552-28.874Z" fill="#2f2e41"/><path d="m889.207 188.372-.389-.177c-13.581-6.197-26.898-10.951-39.376-15.289l-.382-.082-.001-1.11.248.087.17-.377c.17-.377.287-.634.386-.804l-.003-.001c1.04-2.12 1.867-4.168 2.667-6.149.825-2.044 1.677-4.155 2.777-6.389a19.356 19.356 0 0 1-4.276-20.828c2.756-6.533 9.784-11.62 17.168-12.465 2.706-7.449 8.735-23.1 8.735-23.1s12.678-.348 17.777-.995l.086-.011.084.019c11.13 2.439 20.424 12.971 22.598 25.613 1.835 10.67-.952 22.875-7.847 34.366a148.04 148.04 0 0 1-11.71 16.089c-3.106 3.884-6.04 7.552-8.476 11.246Z" fill="#ccc"/><path d="M913.292 57.865ZM913.79 55.683c-7.452-1.112-13.303-8.73-12.456-16.217S909.587 25.86 917.1 26.44s13.89 7.764 13.577 15.293-7.37 15.37-16.885 13.95Z" fill="#2f2e41"/><path d="M912.627 50.828c-7.452-1.112-13.303-8.73-12.456-16.217a15.241 15.241 0 0 1 8.882-11.735c-6.01 1.316-11.183 6.553-11.882 12.735-.847 7.487 5.004 15.105 12.456 16.217a14.208 14.208 0 0 0 8.172-1.142 14.504 14.504 0 0 1-5.172.142Z" fill="#2f2e41"/><path d="M768.069 182.806a10.056 10.056 0 0 1 15.153-2.853l30.479-18.655-.627 18.559-28.847 14.87a10.11 10.11 0 0 1-16.158-11.92Z" fill="#ffb8b8"/><path d="m793.128 171.868.293-.202c29.482-20.33 59.958-41.348 92.715-65.434l.215-.158.23.195c5.808 4.92 8.86 14.323 7.099 21.87a17.15 17.15 0 0 1-14.672 13.08l-39.428 23.057c-12.66 8.184-25.764 16.653-38.721 24.902l-.368.234-.21-.494c-2.477-5.806-5.036-11.804-6.989-16.644Z" fill="#ccc"/><path d="M382 434.745H1a1 1 0 0 1 0-2h381a1 1 0 1 1 0 2ZM1057 434.745H676a1 1 0 0 1 0-2h381a1 1 0 0 1 0 2Z" fill="#3f3d56"/></svg>