<svg xmlns="http://www.w3.org/2000/svg" width="1000" height="1000"><rect width="1000" height="1000" rx="200" ry="200" fill="#81c784"/><svg xmlns="http://www.w3.org/2000/svg" xmlns:xlink="http://www.w3.org/1999/xlink" xmlns:svgjs="http://svgjs.com/svgjs" width="960" height="720" transform="matrix(1.04167 0 0 1.04167 0 125)"><svg viewBox="0 0 960 720" fill="none" stroke-linecap="square" stroke-miterlimit="10" xmlns:xlink="http://www.w3.org/1999/xlink" xmlns="http://www.w3.org/2000/svg"><clipPath id="p.0"><path d="M0 0h960v720H0V0z"/></clipPath><g clip-path="url('#p.0')"><path fill="none" d="M0 0h960v720H0z"/><path fill="#6247aa" d="M204.236 492.714c-1.275-62.226 50.167-120.15 134.929-151.93 84.761-31.78 189.95-32.582 275.903-2.103 85.952 30.478 139.595 87.6 140.702 149.829L480 490.464z" fill-rule="evenodd"/><path fill="#6247aa" d="M204.213 344.799c0-62.897 53.998-113.885 120.61-113.885 31.987 0 62.665 11.998 85.284 33.356 22.619 21.357 35.326 50.325 35.326 80.529 0 62.897-54 113.885-120.61 113.885-66.612 0-120.61-50.988-120.61-113.885zM514.567 344.799c0-62.897 54-113.885 120.61-113.885 31.988 0 62.666 11.998 85.285 33.356 22.618 21.357 35.325 50.325 35.325 80.529 0 62.897-53.998 113.885-120.61 113.885-66.61 0-120.61-50.988-120.61-113.885z" fill-rule="evenodd"/><path fill="#fff" d="M239.83 345.372c0-44.188 38.018-80.01 84.915-80.01 22.521 0 44.12 8.43 60.045 23.434 15.924 15.005 24.87 35.356 24.87 56.576 0 44.189-38.017 80.01-84.915 80.01-46.897 0-84.915-35.821-84.915-80.01zM550.262 344.799c0-44.189 38.018-80.01 84.915-80.01 22.521 0 44.12 8.429 60.045 23.434 15.924 15.005 24.871 35.356 24.871 56.576 0 44.188-38.018 80.01-84.916 80.01-46.897 0-84.915-35.822-84.915-80.01z" fill-rule="evenodd"/><path fill="#81c784" d="M289.652 361.11c0-26.878 23.091-48.667 51.575-48.667 13.68 0 26.798 5.128 36.47 14.254 9.672 9.127 15.106 21.505 15.106 34.412 0 26.878-23.091 48.666-51.576 48.666-28.484 0-51.575-21.788-51.575-48.666zM567.633 361.11c0-26.878 23.091-48.667 51.576-48.667 13.679 0 26.797 5.128 36.47 14.254 9.672 9.127 15.105 21.505 15.105 34.412 0 26.878-23.09 48.666-51.575 48.666-28.485 0-51.576-21.788-51.576-48.666z" fill-rule="evenodd"/><path fill="none" d="M568.346 448.909c-56.082 26.044-123.702 25.791-182.02-.68l84.102-161.817z"/><path fill="none" d="M568.346 448.909c-56.082 26.044-123.702 25.791-182.02-.68"/><path stroke="#81c784" stroke-width="24" stroke-linejoin="round" stroke-linecap="butt" d="M568.346 448.909c-56.082 26.044-123.702 25.791-182.02-.68"/></g></svg></svg></svg>