<svg xmlns="http://www.w3.org/2000/svg" data-name="Layer 1" width="829.131" height="587.676"><path fill="#ffb6b6" d="m85.757 572.858 13.761-.001 6.547-53.082-20.311.001.003 53.082z"/><path d="m85.272 587.214 42.32-.002v-.535a16.473 16.473 0 0 0-16.472-16.471h-.001l-7.73-5.865-14.423 5.865H85.27Z" fill="#2f2e41"/><path fill="#ffb6b6" d="m107.98 508.635 10.834 8.486 37.888-37.75-15.99-12.525-32.732 41.789z"/><path d="m98.745 519.638 33.316 26.096.33-.422a16.473 16.473 0 0 0-2.81-23.124l-2.47-9.384-14.97-4.277-2.909-2.278Z" fill="#2f2e41"/><path d="M172.77 266.775s18.265 18.94 10.148 62.911l6.815 75.288 1.759 3.486a11.05 11.05 0 0 1-2.052 12.792l-1.449 4.493-1.353 8.794-50.397 75.765-19.28-20.294 31.118-71.03-8.455-18.264-19.618-63.588-13.53 116.353 2.706 100.117H83.287L67.241 441.981 50.33 285.039l8.797-18.264Z" fill="#2f2e41"/><path d="m54.547 299.32-.185-.258c-9.856-13.8 4.968-46.959 7.204-51.766a12.068 12.068 0 0 1-8.26-12.888l.963-8.193 1.005-8.037-7.197-7.197-.02-.18-4.143-36.242-6.022-24.072a52.848 52.848 0 0 1 15-51.216l13.92-2.21L83.732 80.76h27.282l9.354 8.937c17.462 3.063 20.462 2.063 35.462 20.063l-6.815 55.962-1.7 7.7.004 10.441 4.323 4.804a14.95 14.95 0 0 1 3.546 12.932l-.568 2.842c4.458 1.91 8.712 35.866 9.729 40.608l1.518 7.085c1.299 1.714 9.873 13.146 9.873 16.271 0 .47-.347.923-1.09 1.426-5.843 3.957-29.137 32.023-43.43 26.303-15.226-6.087-75.748 3.045-76.358 3.138Z" fill="#3f3d56"/><path d="M50.882 234.245s7.006-39.594-.053-54.485l-28 2 4.262 56.487 24.477 62.717a11.154 11.154 0 1 0 18.078-6.463Z" fill="#ffb6b6"/><path d="m22.83 158.76 1.732-18.871a54.107 54.107 0 0 1 19.403-36.752 23.687 23.687 0 0 1 24.788-3.272 23.63 23.63 0 0 1 12.204 29.866c-6.471 16.973-4.134 34.921-16.753 37.11l1.37 6.522-12.407 40.49-35.338-4.093Z" fill="#3f3d56"/><path d="M209.206 215.479s-20.509-34.586-35.57-41.272l-19.923 19.776 40.067 40.044 59.456 31.584a11.154 11.154 0 1 0 9.49-16.689Z" fill="#ffb6b6"/><path d="M138.714 176.546 127.72 161.11a54.107 54.107 0 0 1-9.258-40.515 23.687 23.687 0 0 1 16.658-18.645 23.63 23.63 0 0 1 28.73 14.683c6.162 17.087 28.638 45.17 20.499 55.058l5.292 4.05 8 22.788-29.46 19.942Z" fill="#3f3d56"/><circle cx="95.531" cy="42.587" r="30.299" fill="#ffb6b6"/><path d="M73.542 63.943c-.264-.232-.514-.48-.772-.718-.01.024-.01.05-.02.074Z" fill="#2f2e41"/><path d="M120.36 10.591a17.182 17.182 0 0 0-6.067-5.85 25.38 25.38 0 0 0-5.304-1.879l-4.795-1.308A38.013 38.013 0 0 0 96.65.035a19.418 19.418 0 0 0-17.737 9.623c-1.448 2.57-2.61 5.771-5.406 6.711-2.255.758-4.715-.31-7.084-.103a8.53 8.53 0 0 0-6.476 4.77 18.38 18.38 0 0 0-1.699 8.14A45.619 45.619 0 0 0 72.77 63.226c.782-2.062-.506-4.287-1.524-6.259-1.03-1.995-1.667-4.777.058-6.214 1.92-1.599 4.996-.048 7.267-1.09a5.073 5.073 0 0 0 2.536-4.077c.22-1.657-.01-3.341.094-5.01a12.542 12.542 0 0 1 13.412-11.73c5.169.37 10.184 3.902 15.158 2.449 2.335-.682 4.326-2.419 6.74-2.71 2.675-.324 5.19 1.185 7.461 2.634a26.596 26.596 0 0 0-3.612-20.627Z" fill="#2f2e41"/><path d="m225.4 570.191-7.71-12.39-1.54 7.08c-.27 1.24-.54 2.5-.79 3.75-2.19-1.87-4.52-3.6-6.8-5.26q-10.5-7.62-20.99-15.26l2.19 12.7c1.35 7.82 2.76 15.8 6.1 22.95.37.81.77 1.61 1.2 2.39h32.54a10.487 10.487 0 0 0 .54-2.24.775.775 0 0 0 .01-.15c.51-4.85-2.17-9.42-4.75-13.57ZM789.482 556.81l-13.985-22.474-2.793 12.843c-.49 2.249-.98 4.534-1.433 6.802-3.972-3.392-8.199-6.53-12.334-9.541q-19.046-13.822-38.074-27.68l3.972 23.036c2.45 14.185 5.007 28.66 11.065 41.629a64.438 64.438 0 0 0 2.177 4.335h59.024a19.024 19.024 0 0 0 .98-4.063 1.405 1.405 0 0 0 .017-.272c.926-8.798-3.936-17.087-8.616-24.615Z" fill="#f0f0f0"/><path d="m827.94 587.369-826.75.307a1.19 1.19 0 0 1 0-2.381l826.75-.307a1.19 1.19 0 0 1 0 2.381Z" fill="#cacaca"/><path d="M259.398 238.297v287.024a13.806 13.806 0 0 0 13.795 13.795h425.34a13.806 13.806 0 0 0 13.794-13.795V238.297a13.812 13.812 0 0 0-13.794-13.78h-425.34a13.812 13.812 0 0 0-13.795 13.78Z" fill="#3f3d56"/><path d="M269.376 241.869V521.78a7.385 7.385 0 0 0 7.373 7.372h418.243a7.385 7.385 0 0 0 7.373-7.372V241.869a7.389 7.389 0 0 0-7.373-7.388H276.749a7.389 7.389 0 0 0-7.373 7.388Z" fill="#fff"/><path d="M250.502 581.299a8.272 8.272 0 0 0 6.509 3.114h455.44a8.38 8.38 0 0 0 8.191-10.1l-7.07-33.581a8.396 8.396 0 0 0-5.218-6.088 8.12 8.12 0 0 0-2.974-.561H264.053a8.12 8.12 0 0 0-2.974.56 8.395 8.395 0 0 0-5.218 6.089l-7.07 33.581a8.374 8.374 0 0 0 1.711 6.986Z" fill="#2f2e41"/><rect x="873.553" y="696.293" width="14.027" height="8.416" rx=".488" transform="rotate(-180 787.85 622.42)" fill="#3f3d56"/><rect x="845.498" y="696.293" width="14.027" height="8.416" rx=".488" transform="rotate(-180 759.794 622.42)" fill="#3f3d56"/><rect x="817.443" y="696.293" width="14.027" height="8.416" rx=".488" transform="rotate(-180 731.74 622.42)" fill="#3f3d56"/><rect x="789.389" y="696.293" width="14.027" height="8.416" rx=".488" transform="rotate(-180 703.685 622.42)" fill="#3f3d56"/><rect x="761.334" y="696.293" width="14.027" height="8.416" rx=".488" transform="rotate(-180 675.63 622.42)" fill="#3f3d56"/><rect x="733.279" y="696.293" width="14.027" height="8.416" rx=".488" transform="rotate(-180 647.576 622.42)" fill="#3f3d56"/><rect x="705.225" y="696.293" width="14.027" height="8.416" rx=".488" transform="rotate(-180 619.521 622.42)" fill="#3f3d56"/><rect x="677.17" y="696.293" width="14.027" height="8.416" rx=".488" transform="rotate(-180 591.467 622.42)" fill="#3f3d56"/><rect x="649.115" y="696.293" width="14.027" height="8.416" rx=".488" transform="rotate(-180 563.412 622.42)" fill="#3f3d56"/><rect x="621.061" y="696.293" width="14.027" height="8.416" rx=".488" transform="rotate(-180 535.357 622.42)" fill="#3f3d56"/><rect x="593.006" y="696.293" width="14.027" height="8.416" rx=".488" transform="rotate(-180 507.303 622.42)" fill="#3f3d56"/><rect x="564.952" y="696.293" width="14.027" height="8.416" rx=".488" transform="rotate(-180 479.248 622.42)" fill="#3f3d56"/><rect x="536.897" y="696.293" width="14.027" height="8.416" rx=".488" transform="rotate(-180 451.193 622.42)" fill="#3f3d56"/><rect x="508.842" y="696.293" width="14.027" height="8.416" rx=".488" transform="rotate(-180 423.139 622.42)" fill="#3f3d56"/><rect x="480.788" y="696.293" width="14.027" height="8.416" rx=".488" transform="rotate(-180 395.084 622.42)" fill="#3f3d56"/><rect x="452.733" y="696.293" width="14.027" height="8.416" rx=".488" transform="rotate(-180 367.03 622.42)" fill="#3f3d56"/><rect x="873.884" y="710.32" width="14.027" height="8.416" rx=".488" transform="rotate(-180 788.18 636.447)" fill="#3f3d56"/><rect x="845.829" y="710.32" width="14.027" height="8.416" rx=".488" transform="rotate(-180 760.126 636.447)" fill="#3f3d56"/><rect x="817.775" y="710.32" width="14.027" height="8.416" rx=".488" transform="rotate(-180 732.071 636.447)" fill="#3f3d56"/><rect x="789.72" y="710.32" width="14.027" height="8.416" rx=".488" transform="rotate(-180 704.017 636.447)" fill="#3f3d56"/><rect x="761.666" y="710.32" width="14.027" height="8.416" rx=".488" transform="rotate(-180 675.962 636.447)" fill="#3f3d56"/><rect x="733.611" y="710.32" width="14.027" height="8.416" rx=".488" transform="rotate(-180 647.907 636.447)" fill="#3f3d56"/><rect x="705.556" y="710.32" width="14.027" height="8.416" rx=".488" transform="rotate(-180 619.853 636.447)" fill="#3f3d56"/><rect x="677.502" y="710.32" width="14.027" height="8.416" rx=".488" transform="rotate(-180 591.798 636.447)" fill="#3f3d56"/><rect x="649.447" y="710.32" width="14.027" height="8.416" rx=".488" transform="rotate(-180 563.743 636.447)" fill="#3f3d56"/><rect x="621.392" y="710.32" width="14.027" height="8.416" rx=".488" transform="rotate(-180 535.689 636.447)" fill="#3f3d56"/><rect x="593.338" y="710.32" width="14.027" height="8.416" rx=".488" transform="rotate(-180 507.634 636.447)" fill="#3f3d56"/><rect x="565.283" y="710.32" width="14.027" height="8.416" rx=".488" transform="rotate(-180 479.58 636.447)" fill="#3f3d56"/><rect x="537.228" y="710.32" width="14.027" height="8.416" rx=".488" transform="rotate(-180 451.525 636.447)" fill="#3f3d56"/><rect x="509.174" y="710.32" width="14.027" height="8.416" rx=".488" transform="rotate(-180 423.47 636.447)" fill="#3f3d56"/><rect x="481.119" y="710.32" width="14.027" height="8.416" rx=".488" transform="rotate(-180 395.416 636.447)" fill="#3f3d56"/><rect x="453.065" y="710.32" width="14.027" height="8.416" rx=".488" transform="rotate(-180 367.361 636.447)" fill="#3f3d56"/><rect x="610.031" y="727.153" width="112.219" height="8.416" rx=".488" transform="rotate(-180 573.423 653.28)" fill="#3f3d56"/><path d="M581.15 404.04a94.642 94.642 0 1 1-5.992-33.327c.207.556.408 1.112.604 1.673v.005q1.31 3.7 2.308 7.538a95.286 95.286 0 0 1 3.08 24.111Z" fill="#3f3d56"/><path d="M475.446 339.756a31.968 31.968 0 0 0-28.065-1.148c-3.924 1.707-8.056 4.77-9.365 10.303 5.294-3.125 12.148 1.812 13.51 9.732l-.318.087c-.72 5.486.887 11.458 3.997 14.859a10.45 10.45 0 0 1 5.016-7.44c2.285-1.502 4.812-2.593 6.556-5.175 2.068-3.06 2.593-7.534 3.414-11.614s2.38-8.467 5.255-9.604Z" fill="#81c784"/><path d="M445.81 386.434c-1.466 2.202-3.424 3.584-5.182 5.304a11.93 11.93 0 0 0-3.769 7.046c-.222 1.916.122 3.864.074 5.801-.047 1.938-.693 4.118-2.011 4.6-2.08.752-3.668-3.112-5.807-3.382-1.699-.212-3.229 2.461-2.736 4.78s2.805 3.345 4.134 1.831c1.201 2.017.354 5.675-1.45 6.294-.191 1.27-.382 2.535-.567 3.806-4.563-3.192-9.173-6.437-13.053-11.111a33.725 33.725 0 0 1-7.686-18.167c-.503-5.372.243-11.518-2.224-15.652-1.974-3.308-5.362-4.039-8.41-3.832-.556.037-1.118.1-1.673.169a94.237 94.237 0 0 1 6.823-15.615 6.685 6.685 0 0 0 1.71-1.064c2.837-2.409 4.097-7.284 6.4-10.656q.221-.325.46-.635c2.355-3.076 5.51-4.658 8.559-6.13 6.749-3.276 13.694-6.595 20.819-6.14l-2.028.196q-3.549 9.94-7.103 19.882-.54 1.524-1.09 3.054c-1.345 3.769-2.732 7.781-2.526 12 .122 2.498.99 5.166 2.642 6.024 1.54.794 3.223-.18 4.71-1.144.63-.402 1.255-.804 1.885-1.212 2.26-1.456 4.764-2.948 7.151-1.974 2.187.889 3.801 3.859 4.108 7.061a14.117 14.117 0 0 1-2.16 8.866ZM459.253 431.68l-19.804-12.193.112-.289c-4.104 1.563-5.808 8.86-5.13 14.826s2.979 11.3 4.14 17.113a45.425 45.425 0 0 1-1.712 23.836 195.205 195.205 0 0 0 22.93-31.598 16.905 16.905 0 0 0 2.075-4.6 7.317 7.317 0 0 0-.485-5.204 5.794 5.794 0 0 0-2.126-1.89Z" fill="#81c784"/><path d="M433.2 357.735a7.3 7.3 0 0 0-.334 5.308 5.884 5.884 0 0 0 3.287 3.045l3.648 1.808c1.213.601 2.521 1.209 3.758.714 1.492-.597 2.527-2.936 2.259-5.107-.285-2.311-1.741-3.9-3.089-5.254l-5.655-5.683-1.062 1.301a14.19 14.19 0 0 0-2.812 3.868ZM561.597 382.438l4.923 1.16c-.286 5.541-3.033 10.67-6.718 12.528-1.535.773-3.244 1.06-4.515 2.504-1.148 1.313-1.73 3.356-2.265 5.31l-2.811 10.226c-1.006 3.674-2.297 7.755-4.912 9.078-2.245 1.138-4.812-.254-6.538-2.588-1.725-2.335-2.779-5.474-3.8-8.533.063 3.335-1.488 6.606-3.684 7.765-2.202 1.16-4.88.111-6.352-2.477-1.059-1.858-1.498-4.309-2.536-6.193-1.037-1.885-3.213-2.965-4.346-1.197-.746 1.176-.65 2.975-1.021 4.468a4.851 4.851 0 0 1-4.055 3.901 6.761 6.761 0 0 1-4.854-2.218 21.988 21.988 0 0 1-6.03-12.158 14.505 14.505 0 0 1 .17-6.649c.651-2.059 2.223-3.647 3.785-3.255 1.027-2.17-1-5.05-2.827-4.796-1.831.254-3.266 2.218-4.769 3.726-1.498 1.509-3.594 2.605-5.103 1.107a2.07 2.07 0 0 1-2.101 2.196 7.506 7.506 0 0 1-2.737-1.45c-3.456-2.154-7.845-.725-10.3 3.35 1.534-6.531 3.784-14.027 8.5-15.562 1.927-.63 4.029-.11 5.85-1.201 3.223-1.932 3.874-9.232 1.09-12.244.355 2.848.286 6.172-1.217 8.12-1.504 1.948-4.659.678-4.468-2.202a1.93 1.93 0 0 1-3.589.763c-1-1.525-.916-4.018-.206-5.839a13.752 13.752 0 0 1 3.086-4.383c2.514-2.694 5.065-5.42 7.977-7.114 2.916-1.694 6.283-2.266 9.205-.582 1.54.889 2.895 2.371 4.467 3.154a3.31 3.31 0 0 0 4.61-1.154c1.17-2.053.62-5.102 1.054-7.67.778-4.536 5.315-6.659 7.83-3.663-1.88-.481-3.823 1.742-4.056 4.436-.238 2.695 1.123 5.415 2.944 6.23 3.06 1.356 6.055-2.053 8.368-5.208q3.62-4.955 7.252-9.904a11.97 11.97 0 0 1 1.297-1.577 4.173 4.173 0 0 1 5.7-.117c2.446 1.996 3.595 6.088 5.601 8.904 2.912 4.091 7.268 5.087 11.323 5.88q4.533.882 9.073 1.774a94.005 94.005 0 0 1 5.266 11.63 31.875 31.875 0 0 0-13.561 11.724ZM578.07 379.929a19.08 19.08 0 0 0-1.006 5.669c-2.594-3.165-3.007-9.1-1.302-13.207q1.31 3.7 2.308 7.538ZM571.368 446.127a94.895 94.895 0 0 1-7.887 13.197c-1.905-.816-3.954.64-5.738 2.006-1.863 1.429-4.102 2.821-6.013 1.519-1.953-1.334-2.583-5.066-1.964-8.025a21.382 21.382 0 0 1 3.663-7.537c1.588-2.372 3.287-4.833 5.495-5.754 2.212-.921 5.055.38 5.7 3.525l1.567-.053c-.878-1.207-.418-3.705.763-4.145 1.36-.513 2.54 1.355 3.345 3.007.36.746.725 1.498 1.07 2.26Z" fill="#81c784"/><path d="M511.36 423.769c-3.368.211-6.035-3.934-7.808-8.013s-3.39-8.743-6.429-10.819c-1.736-1.186-3.716-1.349-5.6-1.924a6.933 6.933 0 0 1-4.754-4.186l-2.137-.863a32.084 32.084 0 0 0-8.11 5.783 18.128 18.128 0 0 0-4.834 10.566c-.408 4.276 1.1 9.044 3.915 10.65 2.225 1.27 4.815.47 7.069 1.632 2.816 1.452 4.487 5.67 5.12 9.833s.473 8.491.925 12.703 1.701 8.593 4.283 10.751c3.232 2.7 7.973.456 9.423-4.46.711-2.411.687-5.132 1.219-7.635.936-4.408 3.464-7.679 5.469-11.295s3.582-8.527 2.25-12.723ZM478.081 380.453a8.989 8.989 0 0 1 .877.93 3.059 3.059 0 0 1-.054 3.16 2.939 2.939 0 0 0 2.105-1.07 13.528 13.528 0 0 0 1.613-2.273 2.477 2.477 0 0 0 .476-1.983c-.159-.454-.535-.648-.799-.99a6.722 6.722 0 0 1-.738-2.143 3.866 3.866 0 0 0-2.802-2.953l.169.033a1.6 1.6 0 0 0-.75 1.705c.102.66.527 1.209.484 1.882-.06.97-1.029 1.424-1.088 2.393a1.85 1.85 0 0 0 .507 1.309ZM472.311 363.99l.015-.003a2.697 2.697 0 0 0 .287-.306Z" fill="#81c784"/><path d="M473.321 368.537a2.937 2.937 0 0 0 .914-2.911c-.244-1.102-1.11-1.842-1.909-1.639a1.946 1.946 0 0 1-1.81.533c-.493-.127-1.035-.455-1.463-.083a2.217 2.217 0 0 0-.5.974l-.475 1.46a.921.921 0 0 0-.056.553.469.469 0 0 0 .36.286l2.853.841a2.458 2.458 0 0 0 2.086-.014ZM545.12 431.316l-1.318-2.16a7.214 7.214 0 0 0-1.738-2.182 1.54 1.54 0 0 0-2.192.22l.053.41a9.285 9.285 0 0 1 2.317 4.52c.1.736.065 1.498.153 2.236a2.607 2.607 0 0 0 .814 1.824c.693.462 1.505-.22 1.998-1.052a3.62 3.62 0 0 0 .561-2.304 4.041 4.041 0 0 0-.647-1.512ZM552.018 432.252a4.984 4.984 0 0 0-.161-2.01 4.411 4.411 0 0 1 .67-2.5 8.13 8.13 0 0 0 1.047-2.293 1.918 1.918 0 0 0-.05-1.123c-.146-.327-.498-.476-.7-.218l.432.28a3.94 3.94 0 0 0-1.756.084 2.173 2.173 0 0 0-1.33 1.5 9.282 9.282 0 0 1-.35 1.557c-.258.53-.757.707-1.071 1.172a2.804 2.804 0 0 0 .044 2.664 3.109 3.109 0 0 0 1.759 1.383c.528.19 1.224.2 1.466-.496ZM564.3 435.958a6.042 6.042 0 0 0 .76 1.397c.588.592 1.387.228 2.1.084a3.632 3.632 0 0 1 3.455 1.386 8.793 8.793 0 0 0-5.057-6.31 14.857 14.857 0 0 0-5.201-.813l-.302.077c.77 2.24 3.186 2.19 4.244 4.179ZM512.281 440.54l.005.01.088-.169ZM510.418 444.147a16.555 16.555 0 0 0-1.045 2.296 19.986 19.986 0 0 0-.758 3.93c-.094.757-.124 1.724.35 2.093a.673.673 0 0 0 .881-.12 3.482 3.482 0 0 0 .638-.949 21.852 21.852 0 0 0 2.155-5.113 8.897 8.897 0 0 0-.353-5.734l-1.868 3.597ZM492.444 348.065a2.121 2.121 0 0 0 2.286.446 7.548 7.548 0 0 0 2.15-1.421 5.06 5.06 0 0 0 1.305-1.422 2.885 2.885 0 0 0 .267-2.198 2.232 2.232 0 0 0-1.702-1.346l-3.167-.94.764-.687c-.786-.422-1.655.36-2.146 1.33a7.159 7.159 0 0 0-.652 2.005 5.148 5.148 0 0 0 .895 4.233ZM511.081 341.808a1.744 1.744 0 0 0 2.377.193 2.657 2.657 0 0 0 1.052-1.893c.074-.83-.336-1.754-.923-1.825l.134-.778c-1.13-.204-2.52-.245-3.125 1.127a3.22 3.22 0 0 0 .485 3.176Z" fill="#81c784"/><path d="M679.532 285.154H292.21a1.016 1.016 0 0 1 0-2.03h387.323a1.016 1.016 0 0 1 0 2.03Z" fill="#cacaca"/><ellipse cx="314.564" cy="259.771" rx="10.925" ry="11.169" fill="#3f3d56"/><ellipse cx="352.306" cy="259.771" rx="10.925" ry="11.169" fill="#3f3d56"/><ellipse cx="390.048" cy="259.771" rx="10.925" ry="11.169" fill="#3f3d56"/><path d="M656.915 251.37h-26.81a2.03 2.03 0 0 0 0 4.06h26.81a2.03 2.03 0 0 0 0-4.06ZM656.915 258.99h-26.81a2.03 2.03 0 0 0 0 4.06h26.81a2.03 2.03 0 0 0 0-4.06ZM656.915 266.6h-26.81a2.03 2.03 0 0 0 0 4.06h26.81a2.03 2.03 0 0 0 0-4.06Z" fill="#3f3d56"/><path d="M689.794 408.734c6.234-2.718-6.409-4.3-20.752-4.82s-31.695-.492-40.861-1.972c-8.865-1.43-8.212-3.975-8.958-6.28s-4.154-4.67-17.987-5.183c-17.238-.639-45.664 1.82-58.677.344-12.143-1.377-4.925-5.698-22.632-5.863-10.11-.094-23.137 1.33-34.388 1.674a125.358 125.358 0 0 1-23.86-1.244c-5.484-.899-9.303-2.038-15.475-2.831-16.204-2.084-47.905-1.384-76.2 1.287s-52.548 7.046-66.227 11.38-17.457 8.602-14.27 12.22c2.034 2.312 7.24 4.472 19.87 5.401 23.622 1.737 65.68-1.253 90.09.327 13.605.881 19.64 3.065 31.577 4.26 12.824 1.283 31.597 1.351 50.042 1.32a7217.81 7217.81 0 0 0 117.953-1.18c16.775-.303 34.351-.696 52.202-2.136s36.056-4.22 39.822-6.825" fill="#fff" opacity=".35"/></svg>