<svg xmlns="http://www.w3.org/2000/svg" data-name="Layer 1" width="865.67" height="576.443"><path d="M549.817 320.137a11.798 11.798 0 0 0 9.172-13.772 11.592 11.592 0 0 0-.567-1.969l31.471-27.129-20.575-5.82-26.73 26.654a11.84 11.84 0 0 0-5.663 15.631 11.529 11.529 0 0 0 12.892 6.405Z" fill="#ffb6b6"/><path d="m754.18 512.528 1.144-25.72a83.066 83.066 0 0 1 38.745-9.807c-18.609 15.213-16.283 44.54-28.9 65a49.964 49.964 0 0 1-36.639 23.088l-15.572 9.535a83.724 83.724 0 0 1 17.647-67.845 80.873 80.873 0 0 1 14.863-13.81c3.73 9.834 8.712 19.559 8.712 19.559Z" fill="#f2f2f2"/><path fill="#ffb6b6" d="m714.057 561.388-14.101-.001L693.248 507l20.811.001-.002 54.387z"/><path d="m717.652 575.056-45.465-.002v-.575a17.697 17.697 0 0 1 17.696-17.696h.001l8.305-6.3 15.495 6.3 3.97.001Z" fill="#2f2e41"/><path fill="#ffb6b6" d="m648.548 561.388-14.1-.001L627.74 507l20.811.001-.003 54.387z"/><path d="m652.144 575.056-45.465-.002v-.575a17.697 17.697 0 0 1 17.696-17.696h.001l8.305-6.3 15.495 6.3 3.97.001ZM642.445 264.048l91.715 2.293c17.42 9.46 17.684 29.938 11.976 54.25 0 0 1.927 14.45-1.926 18.303s-5.78 3.854-3.854 10.597-8.253 17.758-7.016 18.994 4.126 7.98 4.126 7.98l-9.633 54.911s-6.744 95.372-8.67 97.3-3.854 0-1.927 4.816 3.853 2.89 1.926 4.817a70.95 70.95 0 0 0-4.816 5.78h-23.291s-1.756-9.634-1.756-10.597-1.927-6.744-1.927-7.707 1.703-2.666 1.703-2.666a31.694 31.694 0 0 0 1.187-6.004c0-1.927 5.78-76.105 5.78-76.105l-11.56-96.335-27.937 94.408s0 82.849-1.927 84.775-1.927.964-.964 4.817 4.817 2.89 1.927 5.78-3.853-1.927-2.89 2.89l.963 4.817-28.9.413s-3.854-8.12-1.927-11.01 1.811-2.101-.54-6.83-3.313-5.693-2.35-6.657.963-6.087.963-6.087l4.817-92.175s.964-97.299.964-100.189a9.61 9.61 0 0 0-.8-4.333v-3.923l3.69-13.9Z" fill="#2f2e41"/><path d="m548.756 288.845 15.5 12.5 84.5-65.5-5-114a46.039 46.039 0 0 0-17.022 31.103l-14.478 64.397Z" fill="#e6e6e6"/><path d="M628.756 292.845c29.911 3.823 57.469-7.759 83.5-16.5 11.752-3.946 23.59.173 34.5-6.5-4.717-46.467-.137-98.808 9.884-154.586a13.217 13.217 0 0 0-8.986-14.947l-32.291-9.264-9.942-10.968-25.677 6.519-8.988 16.246-30.887 20.87a11.292 11.292 0 0 0-4.808 11.28 370.22 370.22 0 0 1-6.305 157.85Z" fill="#e6e6e6"/><path d="M724.217 307.227a11.798 11.798 0 0 0 5.067-15.753 11.592 11.592 0 0 0-1.083-1.74l22.874-34.686-21.382.014L711.249 288a11.84 11.84 0 0 0-1.182 16.583 11.529 11.529 0 0 0 14.15 2.645Z" fill="#ffb6b6"/><path d="m717.756 274.845 14 18 49-73-4.238-74.163a56.096 56.096 0 0 0-28.762-45.837l1 114Z" fill="#e6e6e6"/><circle cx="682.576" cy="44.502" r="31.335" fill="#ffb6b6"/><path d="M662.61 26.112a14.807 14.807 0 0 1 3.593.471 51.139 51.139 0 0 0 7.033 1.18 32.59 32.59 0 0 1 29.182 27.643c1.82-1.588 5.964-4.508 9.36-1.794.052.043.082.066.202.009 2.255-1.07 6.259-14.24 6.38-25.834.064-6.155-.905-14.013-5.883-16.502l-.262-.131-.069-.285c-.332-1.385-4.048-3.748-10.505-5.587-11.735-3.343-29.227-9.854-39.077-.271-.746 3.23-3.17 10.143-5.62 10.927-2.713.867-5.056 1.616-5.426 4.943a101.999 101.999 0 0 0 .068 14.22 14.522 14.522 0 0 1 5.159-7.247 10.225 10.225 0 0 1 5.865-1.742Z" fill="#2f2e41"/><path d="M865.67 575.253a1.186 1.186 0 0 1-1.19 1.19H1.19a1.19 1.19 0 0 1 0-2.38h863.29a1.187 1.187 0 0 1 1.19 1.19Z" fill="#ccc"/><path d="m357.277 101.122-117.625 26.464a12.201 12.201 0 0 0-9.215 14.565l32.254 143.364 138.203-31.092a6.056 6.056 0 0 0 2.993-1.652l-32.045-142.434a12.201 12.201 0 0 0-14.565-9.215Z" fill="#e6e6e6"/><path d="m314.55 120.863-64.462 14.503a11.111 11.111 0 0 0-8.394 13.26l30.325 134.79 122.744-27.614-22.085-98.162a48.695 48.695 0 0 0-58.128-36.777Z" fill="#fff"/><path d="m371.158 248.536-80.921 18.205a2.703 2.703 0 1 0 1.187 5.275l80.921-18.205a2.703 2.703 0 1 0-1.187-5.275ZM368.812 238.104 287.89 256.31a2.706 2.706 0 0 0 1.188 5.28l80.921-18.205a2.706 2.706 0 1 0-1.188-5.28ZM320.623 237.992l-35.079 7.892a2.703 2.703 0 1 0 1.187 5.275l35.078-7.892a2.703 2.703 0 1 0-1.186-5.275ZM361.552 205.836 280.63 224.04a2.706 2.706 0 0 0 1.188 5.28l80.922-18.205a2.706 2.706 0 1 0-1.188-5.28ZM359.206 195.41l-80.921 18.205a2.703 2.703 0 1 0 1.186 5.275l80.922-18.205a2.703 2.703 0 1 0-1.187-5.275ZM311.016 195.292l-35.078 7.892a2.706 2.706 0 0 0 1.188 5.28l35.078-7.892a2.706 2.706 0 1 0-1.188-5.28Z" fill="#e4e4e4"/><path d="m351.945 163.136-80.921 18.206a2.706 2.706 0 0 0 1.188 5.28l80.921-18.206a2.706 2.706 0 1 0-1.188-5.28ZM349.6 152.71l-80.922 18.206a2.706 2.706 0 0 0 1.188 5.28l80.922-18.206a2.706 2.706 0 1 0-1.188-5.28ZM301.41 152.592l-35.079 7.892a2.706 2.706 0 0 0 1.188 5.28l35.078-7.891a2.706 2.706 0 1 0-1.188-5.28Z" fill="#e6e6e6"/><path d="M122.614 267.463a2.895 2.895 0 0 0-2.892 2.892v299.047a2.896 2.896 0 0 0 2.892 2.893H497.56a2.895 2.895 0 0 0 2.891-2.893V318.36a2.895 2.895 0 0 0-2.891-2.893H282.365a8.765 8.765 0 0 1-5.907-2.282l-48.378-43.958a6.77 6.77 0 0 0-4.563-1.763Z" fill="#3f3d56"/><path d="m570.077 189.246-200.763-86.31a22.116 22.116 0 0 0-29.018 11.568L235.097 359.2 470.982 460.61a10.977 10.977 0 0 0 6.15.76l104.515-243.105a22.116 22.116 0 0 0-11.57-29.019Z" fill="#e6e6e6"/><path d="m486.375 172.756-110.023-47.3a20.14 20.14 0 0 0-26.427 10.528l-98.907 230.06 209.5 90.067 72.03-167.542a88.262 88.262 0 0 0-46.173-115.813Z" fill="#fff"/><path d="m433.61 420.335-138.116-59.378a4.9 4.9 0 1 0-3.87 9.003l138.116 59.379a4.9 4.9 0 1 0 3.87-9.004ZM441.265 402.531l-138.117-59.379a4.905 4.905 0 0 0-3.874 9.013l138.117 59.378a4.905 4.905 0 1 0 3.874-9.012ZM370.67 351.097l-59.871-25.74a4.9 4.9 0 1 0-3.871 9.003l59.871 25.74a4.9 4.9 0 1 0 3.871-9.003ZM464.943 347.455l-138.117-59.379a4.905 4.905 0 0 0-3.874 9.013l138.117 59.379a4.905 4.905 0 1 0 3.874-9.013ZM472.594 329.66 334.477 270.28a4.9 4.9 0 1 0-3.871 9.003l138.117 59.38a4.9 4.9 0 1 0 3.87-9.004ZM402.002 278.217l-59.871-25.74a4.905 4.905 0 0 0-3.875 9.012l59.872 25.74a4.905 4.905 0 1 0 3.875-9.012Z" fill="#e4e4e4"/><path d="m496.276 274.575-138.117-59.379a4.905 4.905 0 0 0-3.875 9.013l138.117 59.378a4.905 4.905 0 1 0 3.875-9.012ZM503.926 256.78 365.809 197.4a4.905 4.905 0 0 0-3.875 9.012l138.117 59.38a4.905 4.905 0 1 0 3.875-9.013ZM433.335 205.336l-59.872-25.74a4.905 4.905 0 0 0-3.874 9.013l59.871 25.74a4.905 4.905 0 1 0 3.875-9.013Z" fill="#81c784"/><path d="m284.277 278.122-117.625 26.464a12.201 12.201 0 0 0-9.215 14.565l32.254 143.364 138.203-31.092a6.056 6.056 0 0 0 2.993-1.652l-32.045-142.434a12.201 12.201 0 0 0-14.565-9.215Z" fill="#e6e6e6"/><path d="m241.55 297.863-64.462 14.503a11.111 11.111 0 0 0-8.394 13.26l30.325 134.79 122.744-27.614-22.085-98.162a48.695 48.695 0 0 0-58.128-36.777Z" fill="#fff"/><path d="m298.158 425.536-80.921 18.205a2.703 2.703 0 1 0 1.187 5.275l80.921-18.205a2.703 2.703 0 1 0-1.187-5.275ZM295.811 415.104 214.89 433.31a2.706 2.706 0 0 0 1.188 5.28l80.921-18.205a2.706 2.706 0 1 0-1.188-5.28ZM247.623 414.992l-35.079 7.892a2.703 2.703 0 1 0 1.187 5.275l35.078-7.892a2.703 2.703 0 1 0-1.186-5.275ZM288.552 382.836 207.63 401.04a2.706 2.706 0 0 0 1.188 5.28l80.922-18.205a2.706 2.706 0 1 0-1.188-5.28ZM286.206 372.41l-80.921 18.205a2.703 2.703 0 1 0 1.186 5.275l80.922-18.205a2.703 2.703 0 1 0-1.187-5.275ZM238.016 372.292l-35.078 7.892a2.706 2.706 0 0 0 1.188 5.28l35.078-7.892a2.706 2.706 0 1 0-1.188-5.28Z" fill="#e4e4e4"/><path d="m278.945 340.136-80.921 18.206a2.706 2.706 0 0 0 1.188 5.28l80.921-18.206a2.706 2.706 0 1 0-1.188-5.28ZM276.6 329.71l-80.922 18.206a2.706 2.706 0 0 0 1.188 5.28l80.922-18.206a2.706 2.706 0 1 0-1.188-5.28ZM228.41 329.592l-35.079 7.892a2.706 2.706 0 0 0 1.188 5.28l35.078-7.891a2.706 2.706 0 1 0-1.188-5.28Z" fill="#e6e6e6"/><path d="M120.13 346.009a2.892 2.892 0 0 0-2.893 2.891l.09 222.827a2.89 2.89 0 0 0 2.873 2.568h402.773a2.89 2.89 0 0 0 2.874-2.568l25.07-222.502a2.893 2.893 0 0 0-.717-2.251 2.859 2.859 0 0 0-2.156-.965Z" fill="#3f3d56"/><path d="M148.552 358.339a15.555 15.555 0 0 0-15.51 15.374l.504 172.607a15.509 15.509 0 0 0 15.509 15.645h255.677a119.174 119.174 0 0 0 118.513-105.91l9.067-80.47a15.508 15.508 0 0 0-15.411-17.246Zm391.81 0-.045-1h.046Z" fill="#81c784"/><path d="M260.235 487.656h-99.047a3.859 3.859 0 1 1 0-7.718h99.047c4.976-.07 5.026 7.788 0 7.718ZM393.66 507.842H161.189a3.859 3.859 0 1 1 0-7.718h232.473c4.976-.07 5.026 7.788 0 7.718Z" fill="#e4e4e4"/></svg>