<svg id="wave" style="transition:all .3s;transform:rotate(0)" viewBox="0 0 1440 490" version="1.1" xmlns="http://www.w3.org/2000/svg"><defs><linearGradient id="sw-gradient-0" x1="0" x2="0" y1="1" y2="0"><stop stop-color="rgba(129, 199, 132, 1)" offset="0%"/><stop stop-color="rgba(129, 199, 132, 1)" offset="100%"/></linearGradient></defs><path style="opacity:.4;transform:translate(0)" fill="url('#sw-gradient-0')" d="m0 441 30-49c30-49 90-147 150-155.2 60-7.8 120 73.2 180 98 60 24.2 120-7.8 180-8.1 60 .3 120 32.3 180 40.8S840 359 900 294s120-180 180-179.7c60-.3 120 114.7 180 147 60 32.7 120-16.3 180 0 60 16.7 120 97.7 180 106.2s120-57.5 180-130.7C1860 163 1920 82 1980 98s120 131 180 179.7c60 49.3 120 32.3 180 8.1 60-24.8 120-56.8 180-106.1C2580 131 2640 65 2700 98s120 163 180 163.3c60-.3 120-130.3 180-155.1 60-24.2 120 56.8 180 65.3s120-57.5 180-89.8c60-32.7 120-32.7 180-8.2 60 24.5 120 73.5 180 73.5s120-49 180-81.7C4020 33 4080 16 4140 49s120 114 150 155.2l30 40.8v245H0Z"/></svg>