<?xml version="1.0" standalone="no"?>
<svg xmlns:xlink="http://www.w3.org/1999/xlink" id="wave" style="transform:rotate(0deg); transition: 0.3s" viewBox="0 0 1440 490" version="1.1" xmlns="http://www.w3.org/2000/svg"><defs><linearGradient id="sw-gradient-0" x1="0" x2="0" y1="1" y2="0"><stop stop-color="rgba(129, 199, 132, 1)" offset="0%"/><stop stop-color="rgba(129, 199, 132, 1)" offset="100%"/></linearGradient></defs><path style="transform:translate(0, 0px); opacity:0.4" fill="url(#sw-gradient-0)" d="M0,441L30,392C60,343,120,245,180,236.8C240,229,300,310,360,334.8C420,359,480,327,540,326.7C600,327,660,359,720,367.5C780,376,840,359,900,294C960,229,1020,114,1080,114.3C1140,114,1200,229,1260,261.3C1320,294,1380,245,1440,261.3C1500,278,1560,359,1620,367.5C1680,376,1740,310,1800,236.8C1860,163,1920,82,1980,98C2040,114,2100,229,2160,277.7C2220,327,2280,310,2340,285.8C2400,261,2460,229,2520,179.7C2580,131,2640,65,2700,98C2760,131,2820,261,2880,261.3C2940,261,3000,131,3060,106.2C3120,82,3180,163,3240,171.5C3300,180,3360,114,3420,81.7C3480,49,3540,49,3600,73.5C3660,98,3720,147,3780,147C3840,147,3900,98,3960,65.3C4020,33,4080,16,4140,49C4200,82,4260,163,4290,204.2L4320,245L4320,490L4290,490C4260,490,4200,490,4140,490C4080,490,4020,490,3960,490C3900,490,3840,490,3780,490C3720,490,3660,490,3600,490C3540,490,3480,490,3420,490C3360,490,3300,490,3240,490C3180,490,3120,490,3060,490C3000,490,2940,490,2880,490C2820,490,2760,490,2700,490C2640,490,2580,490,2520,490C2460,490,2400,490,2340,490C2280,490,2220,490,2160,490C2100,490,2040,490,1980,490C1920,490,1860,490,1800,490C1740,490,1680,490,1620,490C1560,490,1500,490,1440,490C1380,490,1320,490,1260,490C1200,490,1140,490,1080,490C1020,490,960,490,900,490C840,490,780,490,720,490C660,490,600,490,540,490C480,490,420,490,360,490C300,490,240,490,180,490C120,490,60,490,30,490L0,490Z"/></svg>